PathFileType	4	(X/Y/Z)	/Users/itak/Documents/Research/Walk-IL/dataset/trc/00389_00012.trc
DataRate	CameraRate	NumFrames	NumMarkers	Units	OrigDataRate	OrigDataStartFrame	OrigNumFrames
100.000000	100.000000	4	53	mm	100.000000	76	608
Frame#	Time	RPSI			LPSI			L3			STRN			T10			C7			CLAV			RBAK			LBAK			LSHO			LUPA			LAEL			LAOL			LWTS			LWPS			LFRA			LIFD			LHPS			LHTS			RSHO			RUPA			RAEL			RAOL			RWTS			RWPS			RFRA			RIFD			RHTS			RHPS			RBHD			LFHD			RFHD			LBHD			LHIP			RHIP			RASI			LASI			LKNE			LTHI			LANK			LTIP			LTOE			LMT1			LMT5			LHEE			RKNE			RANK			RTIP			RTOE			RMT1			RMT5			RHEE			RTHI			
		X1	Y1	Z1	X2	Y2	Z2	X3	Y3	Z3	X4	Y4	Z4	X5	Y5	Z5	X6	Y6	Z6	X7	Y7	Z7	X8	Y8	Z8	X9	Y9	Z9	X10	Y10	Z10	X11	Y11	Z11	X12	Y12	Z12	X13	Y13	Z13	X14	Y14	Z14	X15	Y15	Z15	X16	Y16	Z16	X17	Y17	Z17	X18	Y18	Z18	X19	Y19	Z19	X20	Y20	Z20	X21	Y21	Z21	X22	Y22	Z22	X23	Y23	Z23	X24	Y24	Z24	X25	Y25	Z25	X26	Y26	Z26	X27	Y27	Z27	X28	Y28	Z28	X29	Y29	Z29	X30	Y30	Z30	X31	Y31	Z31	X32	Y32	Z32	X33	Y33	Z33	X34	Y34	Z34	X35	Y35	Z35	X36	Y36	Z36	X37	Y37	Z37	X38	Y38	Z38	X39	Y39	Z39	X40	Y40	Z40	X41	Y41	Z41	X42	Y42	Z42	X43	Y43	Z43	X44	Y44	Z44	X45	Y45	Z45	X46	Y46	Z46	X47	Y47	Z47	X48	Y48	Z48	X49	Y49	Z49	X50	Y50	Z50	X51	Y51	Z51	X52	Y52	Z52	X53	Y53	Z53	

77	0.76	938.4818115234375	978.6876220703125	15.83488273620605	930.51953125	970.628173828125	-114.7174758911133	937.9952392578125	1045.032836914062	-47.66314697265625	1177.169677734375	1208.774169921875	-48.93477249145508	929.3251953125	1150.060791015625	-52.94924545288086	961.9989013671875	1399.695678710938	-66.83585357666016	1120.655395507812	1326.530395507812	-53.60121917724609	923.7793579101562	1252.077026367188	2.378583908081055	951.891357421875	1360.772827148438	-170.0973205566406	1041.341064453125	1376.845825195312	-217.4435882568359	1027.137084960938	1257.743041992188	-285.4313049316406	1066.449096679688	1061.6064453125	-298.004150390625	999.8654174804688	1039.008178710938	-248.1699676513672	1157.878662109375	856.3800048828125	-217.1711120605469	1130.787109375	835.6593017578125	-292.240234375	1093.908569335938	958.1548461914062	-297.6959533691406	1167.105590820312	675.2067260742188	-210.0554046630859	1146.54248046875	752.6270141601562	-276.18994140625	1186.338012695312	760.9653930664062	-226.1800384521484	1016.5263671875	1382.465209960938	95.76365661621094	1004.396179199219	1316.37255859375	155.3538970947266	1024.9150390625	1054.27587890625	192.2196502685547	1006.004943847656	1042.227416992188	102.3983917236328	1160.617309570312	844.5519409179688	154.8021850585938	1123.657836914062	831.740478515625	217.6146850585938	1055.265380859375	990.1192626953125	206.5869293212891	1169.82421875	672.2662963867188	157.90478515625	1186.042114257812	741.9923095703125	173.2882232666016	1131.300415039062	742.559326171875	215.8625030517578	982.2440795898438	1589.0361328125	3.045564413070679	1161.920532226562	1596.753784179688	-81.18764495849609	1112.982543945312	1601.919189453125	32.75317001342773	1030.757568359375	1582.900146484375	-150.3519744873047	1014.367919921875	957.70068359375	-229.4292144775391	1033.410034179688	952.2371215820312	131.4973297119141	1155.565307617188	962.83984375	73.10223388671875	1134.157470703125	957.9409790039062	-190.7489013671875	1046.14794921875	465.4031372070312	-205.4927673339844	1046.018676757812	608.4552001953125	-217.7565002441406	929.0552368164062	33.21833038330078	-162.2781829833984	983.2625122070312	237.6609649658203	-196.5679779052734	1145.750122070312	33.30660247802734	-104.2368316650391	1066.227783203125	35.23852157592773	-71.64598083496094	1056.654174804688	32.48497772216797	-175.5345153808594	892.429931640625	31.75727272033691	-105.0181350708008	1040.205078125	465.2308349609375	102.2788314819336	971.3175048828125	45.24587249755859	60.45413970947266	1041.864624023438	339.3876647949219	84.70193481445312	1150.695556640625	28.72283744812012	-7.997275829315186	1073.531616210938	34.12799453735352	-33.80730056762695	1056.705200195312	38.2794075012207	62.70931625366211	896.1372680664062	32.61717224121094	7.84466028213501	1080.881958007812	734.1538696289062	136.3049621582031	
78	0.77	938.2400512695312	978.7075805664062	15.77157592773438	930.43408203125	970.6083984375	-114.7439956665039	937.967529296875	1044.971313476562	-47.67201614379883	1176.97314453125	1208.803466796875	-48.92842483520508	929.2254638671875	1150.04296875	-52.98628997802734	961.8294677734375	1399.7060546875	-66.89260101318359	1120.467041015625	1326.538330078125	-53.61529541015625	923.515625	1252.056762695312	2.295147657394409	951.7282104492188	1360.729614257812	-170.1354522705078	1041.24267578125	1376.843017578125	-217.4810180664062	1027.06982421875	1257.710083007812	-285.4569396972656	1066.46337890625	1061.583740234375	-297.9861145019531	999.829345703125	1038.946411132812	-248.1908569335938	1157.967407226562	856.4550170898438	-217.0902862548828	1130.944213867188	835.6649780273438	-292.134521484375	1093.933227539062	958.1464233398438	-297.6594848632812	1167.2509765625	675.2279663085938	-209.9196166992188	1146.697509765625	752.65673828125	-276.0760498046875	1186.401977539062	760.855712890625	-225.8508911132812	1016.349365234375	1382.427612304688	95.77818298339844	1004.181640625	1316.3408203125	155.3445739746094	1024.584350585938	1054.262329101562	192.1805114746094	1005.870727539062	1042.197509765625	102.3766708374023	1160.395263671875	844.5601196289062	154.9243316650391	1123.434326171875	831.7398071289062	217.7145538330078	1054.997314453125	990.1170043945312	206.5870971679688	1169.626098632812	672.29345703125	158.0646057128906	1185.8203125	741.9984130859375	173.4421234130859	1131.183227539062	742.596923828125	216.0479888916016	981.9981079101562	1589.044799804688	2.956258058547974	1161.662231445312	1596.786010742188	-81.19342803955078	1112.754272460938	1601.923828125	32.69310760498047	1030.527465820312	1582.885375976562	-150.3944091796875	1014.369201660156	957.6912231445312	-229.4297943115234	1033.0869140625	952.2381591796875	131.3856964111328	1155.480590820312	962.8511352539062	73.11873626708984	1134.071044921875	957.870849609375	-190.6833801269531	1046.110107421875	465.3958740234375	-205.5000610351562	1045.992919921875	608.4556884765625	-217.7480621337891	929.049072265625	33.21437072753906	-162.2772369384766	983.2327270507812	237.6559906005859	-196.5821990966797	1145.755249023438	33.31904602050781	-104.2446365356445	1066.228149414062	35.23794174194336	-71.6463623046875	1056.65771484375	32.48798370361328	-175.5393524169922	892.4157104492188	31.73803329467773	-105.0109329223633	1040.181518554688	465.2310180664062	102.2704772949219	971.3196411132812	45.24528121948242	60.45493316650391	1041.84716796875	339.3862915039062	84.69895935058594	1150.69580078125	28.72617721557617	-7.998727798461914	1073.53076171875	34.12852478027344	-33.81034469604492	1056.702514648438	38.27614593505859	62.71244049072266	896.126708984375	32.60475158691406	7.837074756622314	1080.56787109375	734.2103881835938	136.2657318115234	
79	0.78	938.04638671875	978.7200927734375	15.72418975830078	930.3534545898438	970.592529296875	-114.7775497436523	937.9599609375	1044.902221679688	-47.68145370483398	1176.788330078125	1208.837524414062	-48.93111801147461	929.1533203125	1150.021118164062	-53.01943588256836	961.6561889648438	1399.7119140625	-66.93947601318359	1120.279541015625	1326.54833984375	-53.64114379882812	923.2532958984375	1252.029663085938	2.216117858886719	951.5537719726562	1360.682983398438	-170.1732635498047	1041.128540039062	1376.837524414062	-217.5175476074219	1026.990112304688	1257.6767578125	-285.4840698242188	1066.471923828125	1061.559204101562	-297.9674072265625	999.7952880859375	1038.883422851562	-248.2078704833984	1158.061767578125	856.5303955078125	-217.009521484375	1131.10400390625	835.6741943359375	-292.0416259765625	1093.953857421875	958.138427734375	-297.6208801269531	1167.418334960938	675.2784423828125	-209.8147277832031	1146.861572265625	752.6914672851562	-275.9543762207031	1186.46875	760.7213745117188	-225.5226135253906	1016.187744140625	1382.377319335938	95.79660034179688	1003.985595703125	1316.30615234375	155.3333892822266	1024.271728515625	1054.240478515625	192.1412353515625	1005.722534179688	1042.173583984375	102.3470611572266	1160.167846679688	844.5587158203125	155.0382537841797	1123.18310546875	831.7296752929688	217.8037872314453	1054.780639648438	990.1119995117188	206.6075286865234	1169.446166992188	672.3096313476562	158.2462005615234	1185.597534179688	741.9877319335938	173.5999145507812	1131.0439453125	742.6149291992188	216.2280120849609	981.7367553710938	1589.054931640625	2.86212682723999	1161.4033203125	1596.806396484375	-81.203125	1112.526000976562	1601.934448242188	32.61664199829102	1030.297485351562	1582.865844726562	-150.4297027587891	1014.370300292969	957.6797485351562	-229.4334564208984	1032.76708984375	952.2410278320312	131.2750854492188	1155.3994140625	962.8619384765625	73.12664031982422	1133.97021484375	957.779541015625	-190.6022796630859	1046.069458007812	465.3900756835938	-205.5107116699219	1045.961303710938	608.458251953125	-217.7466430664062	929.0441284179688	33.21309280395508	-162.2776947021484	983.201904296875	237.6470794677734	-196.5986175537109	1145.760620117188	33.33161926269531	-104.252082824707	1066.228515625	35.23743057250977	-71.64697265625	1056.66943359375	32.4977912902832	-175.5487365722656	892.4032592773438	31.71998405456543	-105.0069198608398	1040.15185546875	465.2316589355469	102.2640380859375	971.3216552734375	45.2446174621582	60.45570755004883	1041.83154296875	339.3890991210938	84.70135498046875	1150.692016601562	28.72638893127441	-7.99695873260498	1073.527587890625	34.12873077392578	-33.81342697143555	1056.695068359375	38.27006912231445	62.71318054199219	896.1146240234375	32.59210586547852	7.830093383789062	1080.276000976562	734.261962890625	136.2257995605469	
80	0.79	937.9137573242188	978.7245483398438	15.69766998291016	930.2781982421875	970.5809936523438	-114.8157501220703	937.9822387695312	1044.824462890625	-47.69004821777344	1176.617919921875	1208.873168945312	-48.93738555908203	929.1122436523438	1149.994873046875	-53.0493049621582	961.4802856445312	1399.711547851562	-66.97817993164062	1120.09375	1326.559204101562	-53.67537307739258	922.9879760742188	1251.997436523438	2.141538858413696	951.3696899414062	1360.634521484375	-170.2128601074219	1040.99658203125	1376.82958984375	-217.5529022216797	1026.89599609375	1257.645263671875	-285.5130004882812	1066.47412109375	1061.535400390625	-297.9482116699219	999.76318359375	1038.822021484375	-248.2218933105469	1158.16064453125	856.6066284179688	-216.9282379150391	1131.263305664062	835.6902465820312	-291.9644165039062	1093.972045898438	958.1336059570312	-297.5815124511719	1167.610595703125	675.350341796875	-209.7267913818359	1147.036376953125	752.731201171875	-275.8253173828125	1186.54931640625	760.594482421875	-225.2239685058594	1016.028930664062	1382.318237304688	95.8143310546875	1003.805053710938	1316.270751953125	155.3183898925781	1023.985534667969	1054.211791992188	192.1039123535156	1005.541381835938	1042.15576171875	102.3001708984375	1159.93603515625	844.546875	155.143798828125	1122.898193359375	831.7114868164062	217.8783874511719	1054.60791015625	990.10400390625	206.6483001708984	1169.279541015625	672.313720703125	158.4414978027344	1185.376098632812	741.9644775390625	173.7591247558594	1130.878051757812	742.6182861328125	216.3950500488281	981.4619750976562	1589.064819335938	2.767237186431885	1161.147583007812	1596.81787109375	-81.22370910644531	1112.301391601562	1601.945068359375	32.53048706054688	1030.066772460938	1582.843017578125	-150.4574890136719	1014.372375488281	957.6676025390625	-229.4405822753906	1032.45703125	952.2451171875	131.1733856201172	1155.320678710938	962.871826171875	73.12660217285156	1133.866821289062	957.6810302734375	-190.5174255371094	1046.0263671875	465.3855285644531	-205.5251922607422	1045.92431640625	608.463623046875	-217.7512359619141	929.039306640625	33.21409606933594	-162.2795562744141	983.1707763671875	237.6342010498047	-196.6173706054688	1145.764770507812	33.34164047241211	-104.2577590942383	1066.228515625	35.23704528808594	-71.64790344238281	1056.688842773438	32.51361465454102	-175.5623168945312	892.3941650390625	31.70448684692383	-105.0067291259766	1040.115234375	465.2331237792969	102.2582931518555	971.3235473632812	45.24391174316406	60.45645141601562	1041.815795898438	339.3950500488281	84.70760345458984	1150.684814453125	28.7241096496582	-7.993124485015869	1073.5224609375	34.12890625	-33.81614303588867	1056.68408203125	38.26238632202148	62.71133804321289	896.1034545898438	32.57952880859375	7.825694561004639	1080.010498046875	734.3054809570312	136.1886749267578	
